<svg xmlns="http://www.w3.org/2000/svg" viewBox="0 0 220 56" role="img" aria-labelledby="title desc">
  <title id="title">Cloudera logo</title>
  <desc id="desc">Stylised wordmark representing the Cloudera brand.</desc>
  <rect x="0" y="12" width="40" height="32" rx="6" fill="#0C3559" />
  <rect x="48" y="20" width="20" height="20" rx="4" fill="#F58025" />
  <path d="M75 18h12c4 0 7 1 9 3 2 2 3 4 3 7s-1 5-3 7-5 3-9 3h-12zm12 18c3 0 5-.8 7-2.3 1.6-1.5 2.4-3.5 2.4-5.7s-.8-4.3-2.4-5.7c-1.6-1.5-3.8-2.3-7-2.3h-8v16z" fill="#0C3559" />
  <path d="M105 18h6v24h-6z" fill="#0C3559" />
  <path d="M117 30c0-3.5 1.2-6.4 3.6-8.5 2.3-2.1 5.3-3.2 8.8-3.2 3.6 0 6.5 1 8.7 3.1 2.2 2 3.3 4.7 3.3 8v1.5h-18.4c.3 1.9 1.2 3.4 2.7 4.5 1.5 1.1 3.3 1.6 5.4 1.6 2.7 0 5-.8 6.9-2.5l2.7 4c-1.3 1.5-3 2.5-5 3.2-2 .7-4 1-6.2 1-3.8 0-6.9-1.1-9.2-3.3-2.4-2.2-3.6-5.2-3.6-9zm18.7-2.6c-.1-1.8-.8-3.3-2-4.4-1.2-1.1-2.8-1.7-4.6-1.7-1.9 0-3.5.6-4.7 1.7-1.2 1.1-2 2.6-2.2 4.4z" fill="#0C3559" />
  <path d="M146 30c0-3.5 1.2-6.4 3.7-8.5 2.4-2.1 5.6-3.2 9.4-3.2 3.9 0 7 1.1 9.5 3.2 2.4 2.1 3.7 5 3.7 8.6 0 3.5-1.2 6.4-3.6 8.5-2.4 2.1-5.6 3.2-9.5 3.2s-7.1-1.1-9.5-3.2c-2.5-2.2-3.7-5.1-3.7-8.6zm6.4.1c0 2.2.7 4 2.2 5.5 1.5 1.4 3.4 2.1 5.7 2.1 2.3 0 4.1-.7 5.6-2.1 1.5-1.4 2.2-3.2 2.2-5.4 0-2.2-.8-4-2.3-5.5-1.5-1.5-3.3-2.2-5.6-2.2s-4.1.7-5.6 2.2c-1.4 1.4-2.2 3.3-2.2 5.4z" fill="#0C3559" />
  <path d="M179 18h6v9.7L195 18h7l-10.3 11 11.2 13h-7l-8.4-10-2.5 2.4v7.6h-6z" fill="#0C3559" />
</svg>
